<svg width="26" height="26" viewBox="0 0 26 26" fill="none" xmlns="http://www.w3.org/2000/svg">
<path d="M15.8167 14.0745C15.2506 14.0745 14.7283 14.2735 14.3191 14.6058L10.2039 11.6231C10.2728 11.2441 10.2728 10.8559 10.2039 10.4769L14.3191 7.49423C14.7283 7.82653 15.2506 8.02551 15.8167 8.02551C17.1315 8.02551 18.2 6.955 18.2 5.63776C18.2 4.32051 17.1315 3.25 15.8167 3.25C14.5019 3.25 13.4333 4.32051 13.4333 5.63776C13.4333 5.86857 13.4651 6.08944 13.5267 6.30036L9.61801 9.13582C9.03807 8.36577 8.11652 7.86633 7.07778 7.86633C5.32206 7.86633 3.9 9.29102 3.9 11.05C3.9 12.809 5.32206 14.2337 7.07778 14.2337C8.11652 14.2337 9.03807 13.7342 9.61801 12.9642L13.5267 15.7996C13.4651 16.0106 13.4333 16.2334 13.4333 16.4622C13.4333 17.7795 14.5019 18.85 15.8167 18.85C17.1315 18.85 18.2 17.7795 18.2 16.4622C18.2 15.145 17.1315 14.0745 15.8167 14.0745ZM15.8167 4.60306C16.3867 4.60306 16.8494 5.06668 16.8494 5.63776C16.8494 6.20883 16.3867 6.67245 15.8167 6.67245C15.2467 6.67245 14.7839 6.20883 14.7839 5.63776C14.7839 5.06668 15.2467 4.60306 15.8167 4.60306ZM7.07778 12.801C6.11452 12.801 5.33 12.0151 5.33 11.05C5.33 10.0849 6.11452 9.29898 7.07778 9.29898C8.04104 9.29898 8.82556 10.0849 8.82556 11.05C8.82556 12.0151 8.04104 12.801 7.07778 12.801ZM15.8167 17.4969C15.2467 17.4969 14.7839 17.0333 14.7839 16.4622C14.7839 15.8912 15.2467 15.4276 15.8167 15.4276C16.3867 15.4276 16.8494 15.8912 16.8494 16.4622C16.8494 17.0333 16.3867 17.4969 15.8167 17.4969Z" fill="black"/>
</svg>
