<svg width="34" height="34" viewBox="0 0 34 34" fill="none" xmlns="http://www.w3.org/2000/svg">
<path fill-rule="evenodd" clip-rule="evenodd" d="M25.5001 17C25.5001 17.2818 25.3881 17.552 25.1889 17.7513C24.9896 17.9505 24.7194 18.0625 24.4376 18.0625H12.1274L16.6898 22.6227C16.7886 22.7215 16.867 22.8388 16.9204 22.9679C16.9739 23.0969 17.0014 23.2353 17.0014 23.375C17.0014 23.5147 16.9739 23.653 16.9204 23.7821C16.867 23.9112 16.7886 24.0284 16.6898 24.1272C16.591 24.226 16.4738 24.3044 16.3447 24.3578C16.2156 24.4113 16.0773 24.4388 15.9376 24.4388C15.7979 24.4388 15.6595 24.4113 15.5305 24.3578C15.4014 24.3044 15.2841 24.226 15.1853 24.1272L8.81032 17.7522C8.71137 17.6535 8.63287 17.5363 8.57931 17.4072C8.52574 17.2781 8.49817 17.1397 8.49817 17C8.49817 16.8602 8.52574 16.7218 8.57931 16.5928C8.63287 16.4637 8.71137 16.3464 8.81032 16.2477L15.1853 9.87274C15.3848 9.67323 15.6554 9.56115 15.9376 9.56115C16.2197 9.56115 16.4903 9.67323 16.6898 9.87274C16.8893 10.0722 17.0014 10.3428 17.0014 10.625C17.0014 10.9071 16.8893 11.1777 16.6898 11.3772L12.1274 15.9375H24.4376C24.7194 15.9375 24.9896 16.0494 25.1889 16.2487C25.3881 16.4479 25.5001 16.7182 25.5001 17Z" fill="#0C55EC"/>
</svg>
