<svg width="20" height="20" viewBox="0 0 20 20" fill="none" xmlns="http://www.w3.org/2000/svg">
<path fill-rule="evenodd" clip-rule="evenodd" d="M1.86808 8.18118C2.71898 4.37143 6.09751 1.66376 9.99668 1.66663C10.6066 1.66586 11.2145 1.73459 11.8089 1.87148C13.9742 2.34811 15.8594 3.67138 17.0451 5.54691C18.2309 7.42243 18.6187 9.69462 18.1224 11.8579C18.0792 12.0979 17.9057 12.2936 17.6728 12.365C17.44 12.4364 17.1868 12.3715 17.0168 12.1969C16.8468 12.0224 16.7884 11.7673 16.8656 11.536C17.6454 8.04905 15.6802 4.53299 12.3039 3.37447C8.92767 2.21594 5.22143 3.78592 3.70092 7.01874C2.18041 10.2516 3.33249 14.1121 6.37517 15.9798C9.41784 17.8476 13.3768 17.1246 15.5649 14.3015C15.7999 14.0837 16.1584 14.0696 16.4098 14.2684C16.6612 14.4671 16.7305 14.8196 16.5733 15.099C14.1872 18.1865 9.98007 19.2018 6.45105 17.5416C2.92203 15.8815 1.01719 11.9909 1.86808 8.18118ZM10.1102 12.0147C9.96674 11.7123 10.0757 11.3503 10.362 11.1776L10.8516 10.9361L11.6701 8.31696L9.11249 9.12173L7.94332 12.8603C7.83816 13.1995 7.47848 13.3893 7.13951 13.2846C6.9751 13.2341 6.83774 13.1198 6.7581 12.9672C6.67846 12.8146 6.66318 12.6364 6.71568 12.4725L7.98716 8.40475C8.05304 8.20547 8.21083 8.05022 8.41099 7.98773L12.4739 6.71473C12.5967 6.67062 12.731 6.67062 12.8539 6.71473C13.0177 6.76359 13.155 6.87647 13.2348 7.0279C13.3145 7.17932 13.33 7.35653 13.2777 7.5195L11.977 11.5946C11.9252 11.7635 11.8063 11.9037 11.6481 11.9823L10.9174 12.3481C10.6027 12.4612 10.2537 12.317 10.1102 12.0147Z" fill="white"/>
</svg>
