<svg width="20" height="20" viewBox="0 0 20 20" fill="none" xmlns="http://www.w3.org/2000/svg">
<path d="M15.9229 7.64002C15.1565 8.18488 14.2134 8.42195 13.2805 8.30425C12.3476 8.18654 11.4929 7.72265 10.8859 7.00451C10.2789 6.28637 9.96388 5.36639 10.0032 4.4269C10.0425 3.48742 10.4334 2.59699 11.0983 1.93209C11.7632 1.26719 12.6536 0.876351 13.5931 0.837024C14.5326 0.797697 15.4525 1.11276 16.1707 1.71976C16.8888 2.32677 17.3527 3.18141 17.4704 4.11433C17.5881 5.04724 17.3511 5.99033 16.8062 6.75669L18.9837 8.93335C19.0451 8.99057 19.0944 9.05957 19.1285 9.13624C19.1627 9.2129 19.181 9.29566 19.1825 9.37958C19.184 9.4635 19.1686 9.54686 19.1371 9.62468C19.1057 9.70251 19.0589 9.7732 18.9996 9.83255C18.9402 9.8919 18.8695 9.93869 18.7917 9.97012C18.7139 10.0016 18.6305 10.017 18.5466 10.0155C18.4627 10.014 18.3799 9.99566 18.3033 9.9615C18.2266 9.92734 18.1576 9.87809 18.1004 9.81668L15.9229 7.64002ZM16.2504 4.58335C16.2504 3.92031 15.987 3.28443 15.5181 2.81559C15.0493 2.34674 14.4134 2.08335 13.7504 2.08335C13.0873 2.08335 12.4514 2.34674 11.9826 2.81559C11.5138 3.28443 11.2504 3.92031 11.2504 4.58335C11.2504 5.24639 11.5138 5.88228 11.9826 6.35112C12.4514 6.81996 13.0873 7.08335 13.7504 7.08335C14.4134 7.08335 15.0493 6.81996 15.5181 6.35112C15.987 5.88228 16.2504 5.24639 16.2504 4.58335ZM15.8337 8.73002V17.7042C15.8337 17.8192 15.802 17.932 15.742 18.0302C15.6821 18.1283 15.5962 18.208 15.4938 18.2605C15.3914 18.313 15.2766 18.3362 15.1619 18.3276C15.0472 18.319 14.9371 18.2789 14.8437 18.2117L10.002 14.7275L5.1587 18.2109C5.06538 18.278 4.95536 18.3181 4.84072 18.3267C4.72609 18.3354 4.61129 18.3123 4.50896 18.2599C4.40662 18.2075 4.32072 18.1279 4.26069 18.0299C4.20065 17.9318 4.16883 17.8191 4.1687 17.7042V5.20752C4.1687 4.48922 4.45404 3.80035 4.96195 3.29244C5.46986 2.78453 6.15874 2.49919 6.87703 2.49919H9.66703C9.22791 3.35833 9.07112 4.33415 9.21901 5.28762C9.36689 6.24108 9.81191 7.12356 10.4907 7.80932C11.1694 8.49508 12.0472 8.94915 12.9991 9.10684C13.951 9.26452 14.9284 9.11778 15.792 8.68752L15.8337 8.72919V8.73002Z" fill="white"/>
</svg>
