<svg width="16" height="16" viewBox="0 0 16 16" fill="none" xmlns="http://www.w3.org/2000/svg">
<path d="M15.1114 7.45779C15.2766 7.33473 15.3991 7.16307 15.4618 6.96686C15.5245 6.77065 15.5242 6.55974 15.461 6.36371C15.3978 6.16767 15.2748 5.99633 15.1093 5.87372C14.9438 5.75111 14.744 5.68337 14.5381 5.68001L10.5381 5.5289C10.5184 5.52754 10.4995 5.52053 10.4838 5.5087C10.468 5.49687 10.456 5.48073 10.4492 5.46223L9.06695 1.7289C8.9975 1.53896 8.87137 1.37495 8.70562 1.25908C8.53987 1.1432 8.34252 1.08105 8.14029 1.08105C7.93805 1.08105 7.7407 1.1432 7.57495 1.25908C7.4092 1.37495 7.28307 1.53896 7.21362 1.7289L5.83584 5.47557C5.82903 5.49407 5.81702 5.5102 5.80125 5.52203C5.78547 5.53386 5.76662 5.54088 5.74695 5.54223L1.74695 5.69335C1.541 5.69671 1.34126 5.76444 1.17575 5.88705C1.01024 6.00966 0.887245 6.181 0.824023 6.37704C0.760801 6.57308 0.760517 6.78399 0.823212 6.98019C0.885907 7.1764 1.00844 7.34807 1.17362 7.47112L4.3114 9.93779C4.3271 9.95015 4.33884 9.96684 4.34516 9.9858C4.35148 10.0048 4.3521 10.0251 4.34695 10.0445L3.26695 13.8711C3.21099 14.066 3.21641 14.2734 3.28248 14.465C3.34855 14.6567 3.47207 14.8234 3.63622 14.9424C3.80037 15.0613 3.99719 15.1269 4.19991 15.13C4.40263 15.1332 4.60139 15.0738 4.76917 14.96L8.08473 12.7378C8.10106 12.7265 8.12044 12.7205 8.14029 12.7205C8.16013 12.7205 8.17951 12.7265 8.19584 12.7378L11.5114 14.96C11.6769 15.0777 11.875 15.141 12.0781 15.141C12.2812 15.141 12.4792 15.0777 12.6447 14.96C12.8089 14.8421 12.9326 14.6763 12.9986 14.4853C13.0647 14.2943 13.0699 14.0875 13.0136 13.8933L11.9247 10.0533C11.919 10.0341 11.9193 10.0135 11.9256 9.99439C11.932 9.9753 11.9441 9.95864 11.9603 9.94668L15.1114 7.45779Z" fill="white"/>
</svg>
