<svg width="9" height="9" viewBox="0 0 9 9" fill="none" xmlns="http://www.w3.org/2000/svg">
<path d="M9 4.5015C8.9996 5.69497 8.52512 6.83941 7.68092 7.68304C6.83673 8.52667 5.69198 9.0004 4.4985 9C3.30503 8.9996 2.16059 8.52512 1.31696 7.68092C0.473327 6.83673 -0.000397442 5.69198 2.50195e-07 4.4985C0.000397942 3.30503 0.474885 2.16059 1.31908 1.31696C1.73708 0.899235 2.23327 0.567933 2.77931 0.341968C3.32535 0.116004 3.91055 -0.000196667 4.5015 2.49857e-07C5.09245 0.000197167 5.67757 0.116788 6.22346 0.343116C6.76935 0.569444 7.26532 0.901078 7.68304 1.31908C8.10077 1.73708 8.43207 2.23327 8.65803 2.77931C8.884 3.32535 9.0002 3.91055 9 4.5015Z" fill="#0E3C6E"/>
</svg>
