<svg width="24" height="24" viewBox="0 0 24 24" fill="none" xmlns="http://www.w3.org/2000/svg">
<path d="M10.8026 2.92754C11.1403 2.65099 11.5632 2.49988 11.9996 2.49988C12.4361 2.49988 12.859 2.65099 13.1966 2.92754L19.7841 8.29854C20.0083 8.48231 20.1888 8.71362 20.3125 8.97573C20.4363 9.23784 20.5002 9.52419 20.4996 9.81404V19.5565C20.4996 20.63 19.6436 21.5 18.5871 21.5H16.0371C14.9806 21.5 14.1246 20.63 14.1246 19.5565V14.875C14.1246 14.5175 13.8396 14.2275 13.4871 14.2275H10.5121C10.1601 14.2275 9.87464 14.5175 9.87464 14.875V19.557C9.87464 20.6305 9.01864 21.5005 7.96214 21.5005H5.41214C4.35614 21.5 3.49964 20.63 3.49964 19.5565V9.81404C3.4991 9.52419 3.56301 9.23784 3.68676 8.97573C3.81051 8.71362 3.99099 8.48231 4.21514 8.29854L10.8026 2.92754Z" fill="white"/>
</svg>
